<svg xmlns="http://www.w3.org/2000/svg" version="1" viewBox="0 0 128 128">
  <circle cx="64" cy="64" r="64" fill="#fccc66"/>
  <path fill="#24ad61" d="M43 66L12 96h104L86 67z"/>
  <path fill="#00c0c2" d="M40 68s12 8 12 12-17 5-19 6-12 2-11 0l18-18zM89 69s-26 6-25 12 4 5 12 2 5 1 7 4 8 2 12 2l18 4-24-24z"/>
  <path fill="#f5795d" d="M89 39c0 13-25 49-25 49S39 52 39 39s11-25 25-25 25 11 25 25z"/>
  <circle cx="64" cy="38" r="16" fill="#f3f4f8"/>
  <path fill="#fccc66" d="M65 49c-4 0-7-3-7-3a2 2 0 0 1 3-3l4 1c2 0 3 0 3-2l-4-2c-3-1-6-3-6-6 0-4 2-6 6-6l6 1a2 2 0 0 1-2 4l-4-1c-1 0-2 0-2 2l3 2c3 1 7 2 7 6 0 3-2 7-7 7z"/>
  <path fill="#fccc66" d="M64 52l-1-1V25a1 1 0 1 1 3 0v26l-2 1z"/>
</svg>
