<svg xmlns="http://www.w3.org/2000/svg" width="14" height="16" viewBox="0 0 14 16">
    <g fill="none" fill-rule="evenodd" transform="translate(-15 -14)">
        <rect width="44" height="44" rx="2"/>
        <path fill="#FFF" fill-rule="nonzero" d="M28.454 23.171a.54.54 0 0 0-.543.486c-.251 2.968-2.8 5.282-5.9 5.282-3.263 0-5.92-2.586-5.92-5.764 0-3.129 2.573-5.686 5.767-5.765.084-.003.15.061.15.143v1.797c0 .45.507.721.897.482l3.508-2.404a.565.565 0 0 0 0-.968l-3.504-2.371c-.39-.24-.897.032-.897.482v1.632a.142.142 0 0 1-.143.143C18.063 16.421 15 19.45 15 23.175 15 26.946 18.14 30 22.012 30c3.675 0 6.687-2.74 6.986-6.254a.536.536 0 0 0-.544-.575z"/>
    </g>
</svg>
