<svg xmlns="http://www.w3.org/2000/svg" xmlns:xlink="http://www.w3.org/1999/xlink" width="135" height="108" viewBox="0 0 135 108">
    <defs>
        <path id="a" d="M0 0h300v108H0z"/>
    </defs>
    <g fill="none" fill-rule="evenodd" transform="translate(-2)">
        <mask id="b" fill="#fff">
            <use xlink:href="#a"/>
        </mask>
        <use fill="#0ABF53" xlink:href="#a"/>
        <path fill="#000" fill-rule="nonzero" d="M104.072-42.652C87.81-60.827 71.301-72.925 71.136-73.046L69.827-74l-1.302.962c-.165.124-16.669 12.39-32.928 30.645C20.475-25.413 2 .4 2 26.945c-.002 28.938 28.185 52.74 61.227 55.13V121h4.406V82.26c2.203.007 1.315.027 1.754.027C106.544 82.287 137 57.46 137 26.943c0-26.898-17.805-52.693-32.928-69.595zM69.944 77c-.436 0 .449-.02-1.752-.026V52.965l39.251-38.624-3.337-3.099-35.914 35.524V-24.64h-4.403v37.255L45.246-6.29l-3.338 3.099 21.88 22.005v32.338l-.092.092.093.088v25.45C32.969 74.445 7 52.654 7 26.19 7-18.171 61.057-61.91 70.177-69 79.317-61.988 133-18.796 133 26.192 133 54.206 104.652 77 69.944 77z" mask="url(#b)" opacity=".08"/>
    </g>
</svg>
