<?xml version="1.0" encoding="UTF-8"?>
<svg width="798px" height="676px" viewBox="0 0 798 676" version="1.1" xmlns="http://www.w3.org/2000/svg" xmlns:xlink="http://www.w3.org/1999/xlink">
    <!-- Generator: Sketch 61.2 (89653) - https://sketch.com -->
    <title>Lumen Large White</title>
    <desc>Created with Sketch.</desc>
    <g id="Lumen-Large-White" stroke="none" stroke-width="1" fill="none" fill-rule="evenodd">
        <path d="M799,169.054291 L799,237.878396 L769.89186,252.684367 C747.784279,263.961198 734.61432,287.389076 736.485192,312.111075 C737.128279,320.697187 737.466746,329.384709 737.466746,338.072231 C737.425505,465.145711 666.031783,581.460903 552.66498,639.152664 C439.298177,696.844425 303.112788,686.165135 200.150787,611.509455 L200.150787,611.509455 L259.924014,581.086226 L263.308682,579.294635 C349.090795,627.331453 453.939638,626.35985 538.814502,576.741605 C623.689367,527.12336 675.872538,436.293309 675.933491,338.072231 C675.929678,325.909677 675.13827,313.760101 673.564224,301.69957 L673.564224,301.69957 L207.935522,538.662722 L111.607886,587.677925 L-1,644.975007 L-1,575.981884 L112.38636,518.279159 L167.488746,490.188377 L799,169.054291 Z M245.251958,36.8896225 C358.61932,-20.8417207 494.829155,-10.1878292 597.815366,64.465989 L597.815366,64.465989 L589.590624,68.6576339 L534.454392,96.714612 C448.694257,48.8789271 343.986325,49.962669 259.237241,99.5631483 C174.488158,149.163628 122.365157,239.867184 122.235742,337.97082 C122.240681,350.054712 123.032105,362.125506 124.605009,374.106856 L124.605009,374.106856 L589.759858,137.481739 L686.087494,88.4665365 L799,30.9328296 L799,99.9597565 L685.10594,157.93291 L630.003554,185.956085 L139.632933,435.494172 L112.318666,449.387446 L84.59824,463.517346 L-1,507.090171 L-1,438.029441 L28.0742935,423.223469 C50.2016048,411.963307 63.3887884,388.528533 61.5148079,363.796761 C60.8604389,355.255721 60.5332544,346.680878 60.5332544,338.072231 C60.5201157,210.980271 131.884595,94.6209658 245.251958,36.8896225 Z" id="Combined-Shape" fill="#FFFFFF" fill-rule="nonzero"></path>
    </g>
</svg>